<?xml version="1.0" encoding="UTF-8"?>
<svg xmlns="http://www.w3.org/2000/svg" xmlns:xlink="http://www.w3.org/1999/xlink" width="37.5pt" height="37.499999pt" viewBox="0 0 37.5 37.499999" version="1.2">
<defs>
<clipPath id="clip1">
  <path d="M 0 0 L 37.007812 0 L 37.007812 37.007812 L 0 37.007812 Z M 0 0 "/>
</clipPath>
<clipPath id="clip2">
  <path d="M 13 13 L 37.007812 13 L 37.007812 37.007812 L 13 37.007812 Z M 13 13 "/>
</clipPath>
</defs>
<g id="surface1">
<g clip-path="url(#clip1)" clip-rule="nonzero">
<path style=" stroke:none;fill-rule:nonzero;fill:rgb(87.838745%,87.838745%,87.838745%);fill-opacity:1;" d="M 13.742188 24.328125 C 17.203125 27.882812 19.695312 32.371094 20.839844 37.378906 C 20.15625 37.460938 19.453125 37.5 18.75 37.5 C 8.390625 37.5 0 29.109375 0 18.75 C 0 18.046875 0.0390625 17.34375 0.121094 16.660156 C 5.128906 17.804688 9.617188 20.296875 13.171875 23.757812 C 13.273438 23.851562 13.367188 23.945312 13.460938 24.039062 C 13.554688 24.132812 13.648438 24.226562 13.742188 24.328125 Z M 37.5 18.75 C 37.5 19.453125 37.460938 20.15625 37.378906 20.839844 C 32.371094 19.695312 27.882812 17.203125 24.328125 13.742188 C 24.226562 13.648438 24.132812 13.554688 24.039062 13.460938 C 23.945312 13.367188 23.851562 13.273438 23.757812 13.171875 C 20.296875 9.617188 17.804688 5.128906 16.660156 0.121094 C 17.34375 0.0390625 18.046875 0 18.75 0 C 29.109375 0 37.5 8.390625 37.5 18.75 Z M 37.5 18.75 "/>
</g>
<path style=" stroke:none;fill-rule:nonzero;fill:rgb(26.669312%,54.119873%,100%);fill-opacity:1;" d="M 16.65625 0.121094 C 17.835938 5.265625 20.441406 9.859375 24.039062 13.460938 L 13.460938 24.039062 C 9.859375 20.441406 5.265625 17.835938 0.121094 16.65625 C 1.089844 7.96875 7.96875 1.089844 16.65625 0.121094 Z M 16.65625 0.121094 "/>
<g clip-path="url(#clip2)" clip-rule="nonzero">
<path style=" stroke:none;fill-rule:nonzero;fill:rgb(66.668701%,0%,100%);fill-opacity:1;" d="M 37.378906 20.84375 C 36.410156 29.527344 29.53125 36.410156 20.84375 37.378906 C 19.664062 32.234375 17.058594 27.640625 13.460938 24.039062 L 24.039062 13.460938 C 27.640625 17.058594 32.234375 19.664062 37.378906 20.84375 Z M 37.378906 20.84375 "/>
</g>
<path style=" stroke:none;fill-rule:nonzero;fill:rgb(19.219971%,10.5896%,57.249451%);fill-opacity:1;" d="M 13.445312 13.445312 C 13.097656 13.796875 12.789062 14.175781 12.515625 14.582031 C 12.242188 14.992188 12.007812 15.425781 11.820312 15.878906 C 11.632812 16.335938 11.488281 16.804688 11.394531 17.285156 C 11.296875 17.769531 11.25 18.257812 11.25 18.75 C 11.25 19.242188 11.296875 19.730469 11.394531 20.214844 C 11.488281 20.695312 11.632812 21.164062 11.820312 21.621094 C 12.007812 22.074219 12.242188 22.507812 12.515625 22.917969 C 12.789062 23.328125 13.097656 23.707031 13.445312 24.054688 C 13.796875 24.402344 14.175781 24.710938 14.582031 24.984375 C 14.992188 25.257812 15.425781 25.492188 15.878906 25.679688 C 16.335938 25.867188 16.804688 26.011719 17.285156 26.105469 C 17.769531 26.203125 18.257812 26.25 18.75 26.25 C 19.242188 26.25 19.730469 26.203125 20.214844 26.105469 C 20.695312 26.011719 21.164062 25.867188 21.621094 25.679688 C 22.074219 25.492188 22.507812 25.257812 22.917969 24.984375 C 23.328125 24.710938 23.707031 24.402344 24.054688 24.054688 C 24.402344 23.703125 24.710938 23.324219 24.984375 22.917969 C 25.257812 22.507812 25.492188 22.074219 25.679688 21.621094 C 25.867188 21.164062 26.011719 20.695312 26.105469 20.214844 C 26.203125 19.730469 26.25 19.242188 26.25 18.75 C 26.25 18.257812 26.203125 17.769531 26.105469 17.285156 C 26.011719 16.804688 25.867188 16.335938 25.679688 15.878906 C 25.492188 15.425781 25.257812 14.992188 24.984375 14.582031 C 24.710938 14.171875 24.402344 13.792969 24.054688 13.445312 C 23.703125 13.097656 23.324219 12.789062 22.917969 12.515625 C 22.507812 12.242188 22.074219 12.007812 21.621094 11.820312 C 21.164062 11.632812 20.695312 11.488281 20.214844 11.394531 C 19.730469 11.296875 19.242188 11.25 18.75 11.25 C 18.257812 11.25 17.769531 11.296875 17.285156 11.394531 C 16.804688 11.488281 16.335938 11.632812 15.878906 11.820312 C 15.425781 12.007812 14.992188 12.242188 14.582031 12.515625 C 14.171875 12.789062 13.792969 13.097656 13.445312 13.445312 Z M 13.445312 13.445312 "/>
</g>
</svg>
